HIERARCHY
ROOT root
{
	OFFSET 0.000000 0.000000 0.000000
	CHANNELS 6 Xposition Yposition Zposition Zrotation Yrotation Xrotation
	JOINT lhip
	{
		OFFSET 0.058581 -0.082280 -0.017664
		CHANNELS 3 Zrotation Yrotation Xrotation
		JOINT lknee
		{
			OFFSET 0.043451 -0.386469 0.008037
			CHANNELS 3 Zrotation Yrotation Xrotation
			JOINT lankle
			{
				OFFSET -0.014790 -0.426874 -0.037428
				CHANNELS 3 Zrotation Yrotation Xrotation
				JOINT ltoe
				{
					OFFSET 0.041054 -0.060286 0.122042
					CHANNELS 3 Zrotation Yrotation Xrotation
					End Site
					{
						OFFSET 0.000000 0.000000 0.000000
					}
				}
			}
		}
	}
	JOINT rhip
	{
		OFFSET -0.060310 -0.090513 -0.013543
		CHANNELS 3 Zrotation Yrotation Xrotation
		JOINT rknee
		{
			OFFSET -0.043257 -0.383688 -0.004843
			CHANNELS 3 Zrotation Yrotation Xrotation
			JOINT rankle
			{
				OFFSET 0.019056 -0.420046 -0.034562
				CHANNELS 3 Zrotation Yrotation Xrotation
				JOINT rtoe
				{
					OFFSET -0.034840 -0.062106 0.130323
					CHANNELS 3 Zrotation Yrotation Xrotation
					End Site
					{
						OFFSET 0.000000 0.000000 0.000000
					}
				}
			}
		}
	}
	JOINT lowerback
	{
		OFFSET 0.004439 0.124404 -0.038385
		CHANNELS 3 Zrotation Yrotation Xrotation
		JOINT upperback
		{
			OFFSET 0.004488 0.137956 0.026820
			CHANNELS 3 Zrotation Yrotation Xrotation
			JOINT chest
			{
				OFFSET -0.002265 0.056032 0.002855
				CHANNELS 3 Zrotation Yrotation Xrotation
				JOINT lowerneck
				{
					OFFSET -0.013390 0.211636 -0.033468
					CHANNELS 3 Zrotation Yrotation Xrotation
					JOINT upperneck
					{
						OFFSET 0.010113 0.088937 0.050410
						CHANNELS 3 Zrotation Yrotation Xrotation
						End Site
						{
							OFFSET 0.000000 0.000000 0.000000
						}
					}
				}
				JOINT lclavicle
				{
					OFFSET 0.071702 0.114000 -0.018898
					CHANNELS 3 Zrotation Yrotation Xrotation
					JOINT lshoulder
					{
						OFFSET 0.122921 0.045205 -0.019046
						CHANNELS 3 Zrotation Yrotation Xrotation
						JOINT lelbow
						{
							OFFSET 0.255332 -0.015649 -0.022946
							CHANNELS 3 Zrotation Yrotation Xrotation
							JOINT lwrist
							{
								OFFSET 0.265709 0.012698 -0.007375
								CHANNELS 3 Zrotation Yrotation Xrotation
								End Site
								{
									OFFSET 0.000000 0.000000 0.000000
								}
							}
						}
					}
				}
				JOINT rclavicle
				{
					OFFSET -0.082954 0.112472 -0.023707
					CHANNELS 3 Zrotation Yrotation Xrotation
					JOINT rshoulder
					{
						OFFSET -0.113228 0.046853 -0.008472
						CHANNELS 3 Zrotation Yrotation Xrotation
						JOINT relbow
						{
							OFFSET -0.260127 -0.014369 -0.031269
							CHANNELS 3 Zrotation Yrotation Xrotation
							JOINT rwrist
							{
								OFFSET -0.269108 0.006794 -0.006027
								CHANNELS 3 Zrotation Yrotation Xrotation
								End Site
								{
									OFFSET 0.000000 0.000000 0.000000
								}
							}
						}
					}
				}
			}
		}
	}
}
MOTION
Frames: 13
Frame Time: 0.033333
-0.064393 -0.564513 0.878684 -179.538485 0.259275 102.210501 13.721812 6.694419 -31.670792 -8.045254 6.129312 53.038988 0.559932 15.386443 -36.008262 0.000000 -0.000000 0.000000 -14.416682 -10.302259 -57.549427 1.592229 -12.940873 59.434584 0.508280 -10.443719 -12.430439 0.000000 -0.000000 0.000000 -0.537674 -6.170231 32.813394 2.732309 -3.745816 0.474450 0.500227 -1.197429 -5.257833 -9.612632 4.316704 -13.185420 0.798484 1.048362 -2.957621 -29.334329 -8.355829 1.509678 -31.261177 -18.011505 13.330020 13.180215 -60.165924 -4.819199 3.539671 -15.933369 -4.655542 31.507153 8.828849 4.159023 41.526834 1.887767 2.934263 -13.424605 38.587634 -18.561284 0.597962 9.881269 -18.654316 
-0.050744 -0.547324 0.878078 179.987457 -0.304271 101.885047 14.243036 6.695729 -30.713988 -8.364459 5.673507 54.703371 0.024061 15.046170 -34.081647 0.000000 -0.000000 0.000000 -14.180407 -9.266438 -57.033813 1.531192 -12.479168 61.244974 -0.263638 -11.179411 -14.781596 0.000000 -0.000000 0.000000 -0.316117 -6.606617 32.603661 2.311357 -3.546744 0.775945 0.257674 -0.875213 -5.352187 -10.213329 4.222142 -13.526225 0.630415 1.344038 -2.785945 -30.051657 -8.732727 1.666924 -31.881790 -16.341909 13.271964 11.742650 -54.174754 -3.999238 0.858222 -15.017757 -4.489185 31.881585 9.706705 4.701406 41.409106 2.236204 2.723300 -13.463055 39.327756 -19.455875 1.624001 10.107936 -18.480794 
-0.037473 -0.530526 0.878704 179.255939 -1.251080 101.489460 14.671561 6.456917 -30.846461 -8.407481 6.227848 58.033489 -0.616077 14.158503 -30.187067 0.000000 -0.000000 0.000000 -14.198718 -8.194222 -56.398219 1.278139 -11.785875 62.810014 -1.120732 -11.740890 -16.561077 0.000000 -0.000000 0.000000 -0.241424 -6.583080 32.415356 1.670071 -3.400870 0.848531 -0.036920 -0.631415 -5.481320 -10.835480 4.168621 -13.045834 0.832574 1.483025 -2.851061 -31.002093 -8.809722 2.076611 -32.217228 -14.803634 12.962103 10.673280 -48.462621 -4.323444 -1.263785 -13.967063 -3.988180 32.359162 10.329555 5.484718 41.269318 2.994613 2.427001 -13.383364 39.824151 -20.285362 2.635452 10.669323 -18.276556 
-0.025696 -0.514546 0.880692 178.683219 -2.221948 101.091817 15.039983 6.076557 -32.079620 -8.140123 7.487785 62.233021 -0.736660 13.950309 -24.521433 0.000000 -0.000000 0.000000 -14.318608 -7.404642 -55.519121 1.181529 -11.256966 63.894751 -2.117014 -12.408886 -17.829942 0.000000 -0.000000 0.000000 0.219191 -6.486383 32.493609 0.930849 -3.321634 1.022197 -0.472505 -0.510664 -5.816065 -11.167070 3.743938 -13.472827 0.547240 1.749537 -2.251983 -31.957751 -8.571245 1.881542 -32.750344 -13.138834 12.908290 10.003012 -43.834928 -4.631408 -2.187639 -12.516059 -3.230596 32.685450 10.369034 5.456964 41.022225 4.040148 2.488746 -12.904741 40.850855 -20.955445 2.975083 10.329701 -17.508106 
-0.015947 -0.499610 0.882799 178.063043 -3.288135 100.856858 15.294360 5.892214 -33.745629 -7.162817 9.409122 65.767506 -1.182554 13.501791 -19.811487 0.000000 -0.000000 0.000000 -14.523762 -6.879060 -54.641498 0.654503 -10.825188 64.683196 -2.708977 -12.541417 -19.135038 0.000000 -0.000000 0.000000 0.624357 -6.270067 32.267251 0.155622 -3.386073 0.991976 -0.933016 -0.283964 -5.845032 -11.556056 3.186722 -12.901993 0.445213 2.190762 -2.714121 -33.108674 -8.084533 2.032447 -32.913405 -11.199559 12.575019 10.074366 -41.218046 -5.468720 -3.070523 -11.760968 -3.349285 32.708549 10.702822 5.622058 40.872043 5.140297 2.595247 -12.801821 41.954715 -21.367548 2.820632 10.255439 -17.721149 
-0.007995 -0.486124 0.885947 177.608145 -4.357376 100.541874 15.224597 5.759126 -35.268768 -6.395764 10.919430 67.690974 -1.572952 13.159676 -18.309951 0.000000 -0.000000 0.000000 -14.690452 -6.344883 -53.514538 0.292912 -9.983752 65.064769 -2.875188 -12.915073 -20.249886 0.000000 -0.000000 0.000000 0.813132 -5.934946 32.366746 -0.469193 -3.516192 1.473001 -1.344476 0.015192 -6.064712 -11.722944 2.527629 -13.176181 0.401390 2.289955 -2.792824 -33.982855 -7.571762 1.864229 -33.176062 -9.323679 12.788007 10.585970 -40.151291 -6.378212 -3.023713 -11.580279 -3.705728 33.155837 11.103630 5.702089 40.020056 5.402433 3.172106 -13.566377 44.234483 -22.861195 2.529859 10.431552 -17.693758 
-0.001582 -0.474175 0.889183 177.459854 -5.334646 100.430252 14.911326 5.530236 -37.044195 -7.699447 11.238054 66.369371 -1.784605 10.822145 -18.521098 0.000000 -0.000000 0.000000 -14.855757 -5.940999 -52.500920 -0.264590 -9.223915 65.141852 -2.772561 -13.211542 -21.313722 0.000000 -0.000000 0.000000 0.703385 -5.444754 32.859697 -0.801882 -3.585269 1.039609 -1.451241 0.237043 -5.905953 -11.474375 1.762275 -13.582154 0.223812 2.445416 -2.569780 -34.177273 -6.652095 1.552494 -34.329767 -7.725774 13.392907 11.438421 -40.407192 -8.287220 -3.176720 -11.256660 -5.442214 33.183873 10.794244 5.694871 39.175526 6.626050 3.651808 -14.271876 47.109183 -23.029675 2.386564 10.582120 -17.419399 
0.003029 -0.462671 0.893097 177.662528 -6.229325 100.356810 14.335366 5.319052 -38.733007 -8.114195 11.356580 62.409857 -1.431956 10.453336 -18.796199 0.000000 -0.000000 0.000000 -15.048023 -5.897092 -51.322917 -0.765969 -8.578868 64.925199 -2.311906 -13.412700 -22.178591 0.000000 -0.000000 0.000000 0.604744 -4.851431 33.443121 -1.017554 -3.641036 0.336392 -1.365670 0.301745 -5.566389 -11.439915 0.752407 -13.723381 0.287675 2.503714 -2.637970 -34.366958 -5.970901 1.355119 -35.411667 -6.221929 13.923140 11.546796 -41.151971 -9.799426 -1.646438 -11.709161 -7.486597 33.111547 10.654856 5.367527 38.506440 7.215128 4.008888 -15.035787 49.560150 -23.606089 1.311107 11.255771 -17.080080 
0.006357 -0.451815 0.897275 177.843692 -6.923859 100.248847 13.901343 5.266120 -40.080697 -7.308132 11.745263 57.005090 -0.805593 11.428311 -18.911172 0.000000 -0.000000 0.000000 -15.124895 -5.883413 -49.979379 -1.043887 -7.962557 64.335765 -1.641728 -13.574317 -23.099862 0.000000 -0.000000 0.000000 0.570876 -4.080963 34.120016 -1.233895 -3.624032 -0.231531 -1.264309 0.258645 -5.449504 -11.303717 -0.220946 -13.875137 0.471734 2.403401 -2.527827 -34.356668 -5.072385 1.217387 -36.449254 -4.986383 14.467612 11.862708 -42.867704 -10.235148 -0.608662 -12.059973 -9.386632 32.817870 10.339980 5.053767 38.376898 8.206000 4.611431 -16.521108 51.465915 -24.175902 0.209269 11.616537 -18.065775 
0.008246 -0.442068 0.900357 178.223171 -7.379145 100.092327 13.616292 5.124807 -41.198797 -6.997701 11.110114 50.520109 -0.649798 11.443748 -18.458380 0.000000 -0.000000 0.000000 -15.163152 -6.032217 -48.667633 -1.494837 -7.631673 63.961233 -1.186188 -13.568850 -23.823390 0.000000 -0.000000 0.000000 0.654940 -3.352448 34.173013 -1.423819 -3.663746 0.432825 -1.311374 0.344941 -5.640918 -10.793004 -0.533095 -14.109604 0.382906 1.731845 -2.369821 -33.696033 -4.305300 1.075000 -37.740972 -4.071177 14.948386 12.505410 -45.615623 -10.565934 -0.493525 -12.121439 -10.058316 32.482433 10.274140 5.017937 38.709377 9.116763 4.905670 -19.405428 53.185301 -26.925981 -0.535006 11.763632 -18.703799 
0.008069 -0.432372 0.903285 178.457264 -7.622203 100.223151 13.559072 4.774950 -42.182294 -7.861757 9.200594 43.442422 -1.105880 10.965682 -17.108859 0.000000 -0.000000 0.000000 -15.186875 -6.406820 -47.669758 -1.536309 -7.365781 63.496718 -0.715592 -13.607365 -24.457144 0.000000 -0.000000 0.000000 0.599086 -2.511601 34.443665 -1.515015 -3.449398 -0.177372 -1.142980 0.672585 -5.199417 -10.507944 -1.332249 -14.526496 0.486229 1.298367 -1.810041 -33.332707 -3.298714 0.856026 -38.639439 -3.451401 15.523181 12.513613 -48.937160 -9.358843 0.363737 -12.399702 -11.262707 32.188693 9.620328 4.945860 38.824101 9.656007 4.693301 -21.451998 55.221382 -28.882004 -1.431381 12.021678 -19.771957 
0.005717 -0.421215 0.904771 177.788853 -7.953332 100.371087 13.357435 5.187154 -42.233152 -9.159815 6.418044 36.687547 -1.577347 9.827167 -16.125850 0.000000 -0.000000 0.000000 -15.508136 -6.560639 -47.000772 -1.570627 -6.986197 63.428193 -0.205833 -13.257895 -25.151590 0.000000 -0.000000 0.000000 0.165514 -1.608254 33.888864 -1.931878 -2.645273 0.514726 -1.122735 0.722713 -5.402904 -10.583001 -1.726058 -14.366467 0.653856 0.921601 -1.857278 -33.345687 -2.144806 0.647049 -38.587399 -2.598204 16.220695 12.777827 -53.000437 -8.625074 1.233309 -12.377191 -11.952089 32.713593 9.084815 4.769996 38.570193 10.293569 5.103805 -23.540320 56.875683 -30.601056 -1.937133 11.764928 -21.003195 
0.001079 -0.409211 0.904738 176.872068 -8.046500 99.918732 13.929004 4.346035 -41.343116 -8.995591 5.253106 31.620152 -1.801597 9.159452 -16.106748 0.000000 -0.000000 0.000000 -15.702441 -6.685725 -45.828386 -1.456464 -6.265520 63.549627 0.395062 -12.825371 -26.072539 0.000000 -0.000000 0.000000 -0.107044 -0.659929 33.941415 -2.201090 -2.002615 0.889194 -1.333939 0.946570 -5.334909 -10.341250 -1.729258 -14.546350 0.581318 0.266685 -1.374894 -32.578731 -0.852262 0.504051 -39.419239 -2.342468 16.999530 13.484459 -56.901049 -7.930325 2.466962 -12.769545 -12.658235 32.805677 8.601280 4.868052 38.969965 11.214000 5.746313 -26.312584 57.953892 -32.735428 -2.965254 12.020619 -21.732563 
